<svg width="32" height="32" viewBox="0 0 32 32" fill="none" xmlns="http://www.w3.org/2000/svg">
<rect width="32" height="32" rx="10" fill="white"/>
<g clip-path="url(#clip0_6_78)">
<path d="M25.6342 20.5671C24.8148 19.6751 23.2817 18.3332 23.2817 13.9375C23.2817 10.5988 20.9711 7.92617 17.8557 7.27047V6.375C17.8557 5.61574 17.2483 5 16.4994 5C15.7504 5 15.1431 5.61574 15.1431 6.375V7.27047C12.0276 7.92617 9.71704 10.5988 9.71704 13.9375C9.71704 18.3332 8.18389 19.6751 7.36451 20.5671C7.11005 20.8443 6.99724 21.1756 6.99936 21.5C7.00402 22.2047 7.54985 22.875 8.36074 22.875H24.638C25.4489 22.875 25.9951 22.2047 25.9994 21.5C26.0015 21.1756 25.8887 20.8439 25.6342 20.5671ZM9.86335 20.8125C10.7633 19.6107 11.7472 17.6186 11.7519 13.9624C11.7519 13.9538 11.7494 13.9461 11.7494 13.9375C11.7494 11.2795 13.8758 9.125 16.4994 9.125C19.1229 9.125 21.2494 11.2795 21.2494 13.9375C21.2494 13.9461 21.2468 13.9538 21.2468 13.9624C21.2515 17.6191 22.2354 19.6111 23.1354 20.8125H9.86335ZM16.4994 27C17.9973 27 19.2124 25.7689 19.2124 24.25H13.7863C13.7863 25.7689 15.0014 27 16.4994 27Z" fill="#4FA1C1"/>
</g>
<defs>
<clipPath id="clip0_6_78">
<rect width="19" height="22" fill="white" transform="translate(7 5)"/>
</clipPath>
</defs>
</svg>
